<?xml version="1.0" encoding="iso-8859-1"?>
<!-- Uploaded to: SVG Repo, www.svgrepo.com, Generator: SVG Repo Mixer Tools -->
<svg fill="#000000" height="800px" width="800px" version="1.1" id="Layer_1" xmlns="http://www.w3.org/2000/svg" xmlns:xlink="http://www.w3.org/1999/xlink" 
	 viewBox="0 0 512.001 512.001" xml:space="preserve">
<g>
	<g>
		<path d="M256.001,0C114.841,0,0,114.841,0,256.001s114.841,256.001,256.001,256.001S512.001,397.16,512.001,256.001
			S397.159,0,256.001,0z M256.001,493.389c-130.897,0-237.39-106.492-237.39-237.39S125.103,18.611,256.001,18.611
			s237.39,106.492,237.39,237.39S386.897,493.389,256.001,493.389z"/>
	</g>
</g>
<g>
	<g>
		<path d="M256.001,49.81c-113.693,0-206.19,92.497-206.19,206.19s92.497,206.19,206.19,206.19
			c42.532,0,83.369-12.845,118.094-37.148c33.935-23.75,59.687-56.662,74.47-95.18c1.841-4.798-0.556-10.18-5.353-12.021
			c-4.799-1.841-10.18,0.556-12.021,5.353c-13.448,35.041-36.882,64.987-67.766,86.601c-31.582,22.101-68.728,33.784-107.423,33.784
			c-103.431,0-187.579-84.148-187.579-187.579S152.568,68.422,256.001,68.422S443.58,152.569,443.58,256.001
			c0,5.139,4.166,9.306,9.306,9.306c5.139,0,9.305-4.166,9.305-9.306C462.191,142.306,369.694,49.81,256.001,49.81z"/>
	</g>
</g>
<g>
	<g>
		<path d="M207.018,176.171c-17.872,0-32.412,14.54-32.412,32.412c0,17.872,14.54,32.412,32.412,32.412
			c17.872,0,32.41-14.54,32.41-32.412C239.428,190.711,224.888,176.171,207.018,176.171z M207.018,222.382
			c-7.609,0-13.801-6.191-13.801-13.801s6.191-13.801,13.801-13.801c7.609,0,13.799,6.191,13.799,13.801
			S214.626,222.382,207.018,222.382z"/>
	</g>
</g>
<g>
	<g>
		<path d="M304.984,176.171c-17.872,0-32.412,14.54-32.412,32.412c0,17.872,14.54,32.412,32.412,32.412
			c17.872,0,32.412-14.54,32.412-32.412C337.395,190.711,322.855,176.171,304.984,176.171z M304.984,222.382
			c-7.609,0-13.801-6.191-13.801-13.801s6.191-13.801,13.801-13.801c7.609,0,13.801,6.191,13.801,13.801
			S312.593,222.382,304.984,222.382z"/>
	</g>
</g>
<g>
	<g>
		<path d="M207.018,271.007c-17.872,0-32.412,14.54-32.412,32.412c0,17.872,14.54,32.412,32.412,32.412s32.41-14.54,32.41-32.412
			C239.428,285.547,224.889,271.007,207.018,271.007z M207.018,317.22c-7.609,0-13.801-6.191-13.801-13.801
			c0-7.609,6.191-13.801,13.801-13.801c7.609,0,13.799,6.191,13.799,13.801C220.817,311.028,214.627,317.22,207.018,317.22z"/>
	</g>
</g>
<g>
	<g>
		<path d="M304.984,271.007c-17.872,0-32.412,14.54-32.412,32.412c0,17.872,14.54,32.412,32.412,32.412
			c17.872,0,32.412-14.54,32.412-32.412C337.395,285.547,322.855,271.007,304.984,271.007z M304.984,317.218
			c-7.609,0-13.801-6.191-13.801-13.801c0-7.609,6.191-13.801,13.801-13.801c7.609,0,13.801,6.191,13.801,13.801
			C318.784,311.027,312.593,317.218,304.984,317.218z"/>
	</g>
</g>
<g>
	<g>
		<circle cx="448.898" cy="293.582" r="9.306"/>
	</g>
</g>
</svg>