<?xml version="1.0" encoding="iso-8859-1"?>
<!-- Uploaded to: SVG Repo, www.svgrepo.com, Generator: SVG Repo Mixer Tools -->
<svg fill="#000000" height="800px" width="800px" version="1.1" id="Layer_1" xmlns="http://www.w3.org/2000/svg" xmlns:xlink="http://www.w3.org/1999/xlink" 
	 viewBox="0 0 512.002 512.002" xml:space="preserve">
<g>
	<g>
		<path d="M388.064,453.003l-7.319-46.219c3.9-5.714,6.186-12.613,6.186-20.037c0-11.432-5.418-21.617-13.814-28.141l-9.674-61.093
			c-0.101-0.643-0.277-1.273-0.521-1.876l-33.061-81.412c-1.774-4.366-6.75-6.473-11.119-4.696
			c-4.366,1.773-6.47,6.752-4.696,11.119l32.692,80.505l7.94,50.127c-1.113-0.105-2.238-0.164-3.377-0.164
			c-6.356,0-12.323,1.681-17.495,4.609l-48.479-159.001c2.87-3.075,4.972-6.924,5.946-11.306
			c3.508-15.782,6.928-31.412,10.202-49.096c1.312-7.089-0.58-14.338-5.195-19.887c-4.618-5.551-11.404-8.735-18.622-8.735h-13.091
			v-18.56h10.644c4.715,0,8.535-3.821,8.535-8.535V27.672C283.743,12.414,271.328,0,256.07,0s-27.672,12.414-27.672,27.672v52.932
			c0,4.713,3.82,8.535,8.535,8.535h10.561v18.56h-13.091c-7.241,0-14.044,3.201-18.661,8.783c-4.617,5.578-6.486,12.853-5.132,19.96
			c0.353,1.849,0.708,3.668,1.064,5.479l-62.592,154.136c-0.245,0.603-0.42,1.232-0.521,1.876l-9.675,61.093
			c-8.396,6.525-13.814,16.709-13.814,28.141c0,7.424,2.285,14.324,6.185,20.037l-7.318,46.219c-0.674,4.251,1.924,8.339,6.06,9.534
			l14.391,4.159l-10.228,33.883c-1.362,4.512,1.191,9.274,5.703,10.638c0.824,0.248,1.654,0.366,2.471,0.366
			c3.665,0,7.053-2.381,8.167-6.07l12.717-42.125c0-0.001,0-0.001,0-0.001l13.696-44.922c11.518-5.911,19.423-17.904,19.423-31.715
			c0-6.267-1.632-12.157-4.484-17.278l50.499-165.631c0.754,0.069,1.517,0.112,2.288,0.112h22.992c0.724,0,1.442-0.032,2.151-0.093
			l50.367,165.194c-2.852,5.122-4.484,11.012-4.484,17.278c0,13.811,7.903,25.803,19.42,31.714l13.696,44.923l0.001,0.002
			l12.717,42.125c1.114,3.69,4.502,6.07,8.167,6.07c0.817,0,1.648-0.118,2.471-0.366c4.512-1.362,7.066-6.125,5.703-10.638
			l-10.228-33.883l14.391-4.159C386.139,461.341,388.737,457.254,388.064,453.003z M245.468,72.069V27.672
			c0-5.846,4.757-10.602,10.602-10.602s10.602,4.757,10.602,10.602v44.398H245.468z M149.344,450.779l-7.368-2.13l4.56-28.797
			c3.533,1.537,7.363,2.514,11.376,2.827L149.344,450.779z M160.704,405.728c-10.236,0-18.564-8.328-18.564-18.564
			c0-10.236,8.326-18.564,18.564-18.564c10.237,0,18.564,8.328,18.564,18.564C179.267,397.401,170.941,405.728,160.704,405.728z
			 M178.199,356.142c-5.172-2.928-11.14-4.609-17.495-4.609c-1.139,0-2.265,0.059-3.378,0.165l7.94-50.127l52.695-129.763
			c0.993,4.49,1.97,8.842,2.907,13.013l0.146,0.648c0.966,4.303,3.02,8.095,5.825,11.139L178.199,356.142z M284.688,133.212
			c-3.223,17.407-6.607,32.875-10.079,48.499c-0.446,2.004-1.69,3.63-3.352,4.603c-0.059,0.034-0.116,0.071-0.174,0.106
			c-1.026,0.561-2.202,0.879-3.448,0.879H244.64c-3.368,0-6.235-2.292-6.972-5.573l-0.146-0.649
			c-3.181-14.151-6.784-30.188-10.145-47.83c-0.545-2.865,0.716-4.916,1.516-5.883c0.801-0.97,2.584-2.596,5.511-2.596h43.252
			c2.917,0,4.698,1.617,5.499,2.581C283.954,128.311,285.217,130.351,284.688,133.212z M332.735,386.746
			c0-10.236,8.326-18.564,18.564-18.564c10.237,0,18.563,8.328,18.563,18.564s-8.326,18.562-18.563,18.562
			C341.061,405.308,332.735,396.982,332.735,386.746z M362.658,450.36l-8.568-28.102c4.014-0.313,7.844-1.288,11.377-2.827
			l4.56,28.798L362.658,450.36z"/>
	</g>
</g>
<g>
	<g>
		<circle cx="255.997" cy="156.037" r="8.535"/>
	</g>
</g>
<g>
	<g>
		<circle cx="351.301" cy="387.168" r="8.535"/>
	</g>
</g>
<g>
	<g>
		<circle cx="310.402" cy="191.78" r="8.535"/>
	</g>
</g>
</svg>