<?xml version="1.0" encoding="iso-8859-1"?>
<!-- Uploaded to: SVG Repo, www.svgrepo.com, Generator: SVG Repo Mixer Tools -->
<svg fill="#000000" height="800px" width="800px" version="1.1" id="Layer_1" xmlns="http://www.w3.org/2000/svg" xmlns:xlink="http://www.w3.org/1999/xlink" 
	 viewBox="0 0 511.997 511.997" xml:space="preserve">
<g>
	<g>
		<path d="M418.128,152.485c5.345,0,9.679-4.334,9.679-9.679v-41.007c0-1.604-0.418-3.242-1.189-4.647l-33.655-61.573
			c-3.097-5.664-9.031-9.183-15.486-9.183c-6.455,0-12.389,3.519-15.486,9.183l-31.119,56.931l-19.212-35.148
			c-3.097-5.664-9.031-9.183-15.486-9.183s-12.389,3.519-15.486,9.183l-15.486,28.333V75.404c0-1.604-0.418-3.242-1.189-4.647
			L230.357,9.183C227.26,3.519,221.326,0,214.871,0s-12.389,3.519-15.486,9.183l-33.655,61.572
			c-0.772,1.405-1.189,3.043-1.189,4.647v66.322l-15.486-28.333c-3.097-5.664-9.031-9.183-15.486-9.183
			c-6.455,0-12.389,3.519-15.486,9.183l-33.655,61.572c-0.772,1.405-1.189,3.043-1.189,4.647v316.988c0,8.492,6.908,15.4,15.4,15.4
			h75.582h81.302h81.302h75.582c8.492,0,15.4-6.908,15.4-15.4V226.045c0.001-5.345-4.332-9.679-9.678-9.679
			c-5.345,0-9.679,4.334-9.679,9.679v266.598h-61.945V123.581v-12.104h61.945v31.329
			C408.449,148.151,412.783,152.485,418.128,152.485z M133.57,125.423l24.33,44.511h-48.66L133.57,125.423z M164.542,492.642
			h-61.945V189.291h61.945V492.642z M214.872,21.214l24.33,44.511h-48.66L214.872,21.214z M245.844,123.581v369.061H183.9v-313.03
			v-94.53h61.945V123.581z M296.174,69.391l24.33,44.511h-48.66L296.174,69.391z M327.147,492.642h-61.945V133.26h61.945V492.642z
			 M353.147,92.12l24.33-44.511l24.33,44.511H353.147z"/>
	</g>
</g>
<g>
	<g>
		<circle cx="133.567" cy="298.548" r="9.679"/>
	</g>
</g>
<g>
	<g>
		<circle cx="133.567" cy="331.662" r="9.679"/>
	</g>
</g>
<g>
	<g>
		<circle cx="133.567" cy="364.79" r="9.679"/>
	</g>
</g>
<g>
	<g>
		<circle cx="214.869" cy="298.548" r="9.679"/>
	</g>
</g>
<g>
	<g>
		<circle cx="214.869" cy="331.662" r="9.679"/>
	</g>
</g>
<g>
	<g>
		<circle cx="214.869" cy="364.79" r="9.679"/>
	</g>
</g>
<g>
	<g>
		<circle cx="296.172" cy="298.548" r="9.679"/>
	</g>
</g>
<g>
	<g>
		<circle cx="296.172" cy="331.662" r="9.679"/>
	</g>
</g>
<g>
	<g>
		<circle cx="296.172" cy="364.79" r="9.679"/>
	</g>
</g>
<g>
	<g>
		<circle cx="378.765" cy="298.548" r="9.679"/>
	</g>
</g>
<g>
	<g>
		<circle cx="378.765" cy="331.662" r="9.679"/>
	</g>
</g>
<g>
	<g>
		<circle cx="378.765" cy="364.79" r="9.679"/>
	</g>
</g>
<g>
	<g>
		<circle cx="419.08" cy="178.71" r="9.679"/>
	</g>
</g>
</svg>