<?xml version="1.0" encoding="iso-8859-1"?>
<!-- Uploaded to: SVG Repo, www.svgrepo.com, Generator: SVG Repo Mixer Tools -->
<svg fill="#000000" height="800px" width="800px" version="1.1" id="Layer_1" xmlns="http://www.w3.org/2000/svg" xmlns:xlink="http://www.w3.org/1999/xlink" 
	 viewBox="0 0 511.999 511.999" xml:space="preserve">
<g>
	<g>
		<path d="M315.757,161.634v-17.329c0-8.409-6.842-15.25-15.25-15.25h-24.124c-4.656,0-8.428,3.774-8.428,8.428v22.517h-23.402
			v-22.517c0-4.655-3.773-8.428-8.428-8.428h-12.992v-15.552l26.346,15.593c1.347,0.797,2.826,1.177,4.285,1.177
			c2.88,0,5.688-1.478,7.261-4.137c2.371-4.005,1.046-9.176-2.96-11.546l-34.933-20.674V70.618l43.947,26.01
			c1.347,0.797,2.826,1.177,4.285,1.177c2.88,0,5.688-1.478,7.261-4.137c2.371-4.005,1.046-9.176-2.96-11.546L223.13,51.031V23.21
			l63.951,37.849c1.104,0.654,1.79,1.857,1.79,3.139v8.757c0,4.655,3.773,8.428,8.428,8.428s8.428-3.774,8.428-8.428v-8.757
			c0-7.211-3.856-13.972-10.06-17.645L218.994,1.175c-2.606-1.542-5.839-1.568-8.468-0.069c-2.63,1.499-4.254,4.294-4.254,7.321
			v121.751c-5.578,2.269-9.526,7.742-9.526,14.125v17.145c-9.81,3.479-16.857,12.847-16.857,23.836v301.43
			c0,13.943,11.344,25.285,25.285,25.285h101.649c13.942,0,25.285-11.342,25.285-25.285V185.285
			C332.113,174.485,325.305,165.25,315.757,161.634z M284.811,145.911H298.9V160h-14.089V145.911z M242.149,176.857h27.814
			l-2.908,13.769c-0.344,1.628-0.199,3.321,0.418,4.866l3.795,9.511l-29.118-17.233V176.857z M242.149,207.356l30.094,17.811
			l-4.769,11.954c-0.8,2.006-0.8,4.242,0,6.248l1.151,2.885l-26.475-15.669V207.356z M242.149,250.173l31.727,18.777l-6.403,16.049
			c-0.007,0.017-0.011,0.034-0.017,0.051l-25.307-14.978V250.173z M242.149,289.659l32.324,19.13l1.306,3.272l-1.253,3.139
			c-5.257-2.362-11.078-3.687-17.205-3.687c-5.347,0-10.46,1.011-15.171,2.836V289.659z M213.607,145.911h14.089V160h-14.089
			V145.911z M267.056,481.376l2.908,13.768H242.15v-59.24c0-4.655-3.773-8.428-8.428-8.428c-4.656,0-8.428,3.774-8.428,8.428v59.24
			H205.18c-4.648,0-8.428-3.78-8.428-8.428v-301.43c0-4.647,3.78-8.428,8.428-8.428h20.114v149.456
			c-6.298,7.366-10.114,16.915-10.114,27.344c0,23.238,18.904,42.142,42.142,42.142c4.484,0,8.803-0.71,12.858-2.014l5.599,14.033
			l-8.306,20.815c-0.799,2.005-0.799,4.241,0.001,6.247l8.306,20.816l-8.306,20.815
			C266.857,478.055,266.712,479.749,267.056,481.376z M257.32,378.941c-13.942,0-25.285-11.342-25.285-25.285
			c0-13.943,11.344-25.285,25.285-25.285c13.942,0,25.285,11.342,25.285,25.285C282.605,367.598,271.263,378.941,257.32,378.941z
			 M315.257,486.715h-0.001c0,4.648-3.78,8.428-8.428,8.428h-19.636l-3.116-14.756l8.606-21.569c0.8-2.006,0.8-4.242,0-6.247
			l-8.306-20.816l8.306-20.815c0.8-2.006,0.8-4.242,0-6.248l-7.696-19.288c8.861-7.732,14.478-19.093,14.478-31.749
			c0-10.843-4.119-20.742-10.872-28.218l4.091-10.252c0.8-2.006,0.8-4.242,0-6.248l-8.306-20.815l8.306-20.815
			c0.8-2.006,0.8-4.242,0-6.248l-8.306-20.815l8.306-20.815c0.8-2.006,0.8-4.242,0-6.248l-8.606-21.569l3.116-14.756h19.636
			c4.648,0,8.428,3.782,8.428,8.428V486.715z"/>
	</g>
</g>
<g>
	<g>
		<circle cx="257.474" cy="353.657" r="8.428"/>
	</g>
</g>
<g>
	<g>
		<circle cx="297.301" cy="106.109" r="8.428"/>
	</g>
</g>
</svg>