<?xml version="1.0" encoding="iso-8859-1"?>
<!-- Uploaded to: SVG Repo, www.svgrepo.com, Generator: SVG Repo Mixer Tools -->
<svg fill="#000000" height="800px" width="800px" version="1.1" id="Layer_1" xmlns="http://www.w3.org/2000/svg" xmlns:xlink="http://www.w3.org/1999/xlink" 
	 viewBox="0 0 511.999 511.999" xml:space="preserve">
<g>
	<g>
		<path d="M377.048,269.87c-4.867,0-8.811,3.944-8.811,8.811v206.887c0,4.859-3.952,8.811-8.811,8.811H152.569
			c-4.859,0-8.811-3.952-8.811-8.811V208.617c0-18.424,14.989-33.411,33.41-33.411h15.165h127.327h15.165
			c18.423,0,33.41,14.988,33.41,33.411c0,4.866,3.944,8.811,8.811,8.811s8.811-3.945,8.811-8.811
			c0-28.14-22.893-51.033-51.032-51.033h-6.354v-52.36c0-14.575-11.858-26.432-26.432-26.432h-16.74l-6.216-70.753
			C278.685,3.49,274.874,0,270.307,0h-28.23c-4.551,0-8.353,3.466-8.773,7.997l-6.568,70.795h-16.78
			c-14.574,0-26.432,11.857-26.432,26.432v52.359h-6.354c-28.139,0-51.032,22.893-51.032,51.033v276.951
			c0,14.574,11.858,26.432,26.432,26.432h206.857c14.574,0,26.432-11.858,26.432-26.432V278.681
			C385.859,273.814,381.915,269.87,377.048,269.87z M250.107,17.621h12.128l5.373,61.17h-23.177L250.107,17.621z M201.144,105.224
			h0.001c0-4.859,3.952-8.811,8.811-8.811h24.811h42.462h24.811c4.859,0,8.811,3.952,8.811,8.811v52.359h-14.605v-36.891
			c0-4.866-3.944-8.811-8.811-8.811c-4.867,0-8.811,3.945-8.811,8.811v36.891h-13.816v-36.891c0-4.866-3.944-8.811-8.811-8.811
			s-8.811,3.945-8.811,8.811v36.891h-13.816v-36.891c0-4.866-3.944-8.811-8.811-8.811s-8.811,3.945-8.811,8.811v36.891h-14.605
			V105.224z"/>
	</g>
</g>
<g>
	<g>
		<path d="M315.046,281.031H196.949c-14.574,0-26.432,11.858-26.432,26.432v54.658c0,14.574,11.858,26.432,26.432,26.432h118.097
			c14.574,0,26.432-11.858,26.432-26.432v-54.658C341.478,292.889,329.62,281.031,315.046,281.031z M323.857,362.121
			c0,4.859-3.952,8.811-8.811,8.811H196.949c-4.858,0-8.811-3.952-8.811-8.811v-54.658c0-4.859,3.952-8.811,8.811-8.811h118.097
			c4.859,0,8.811,3.952,8.811,8.811V362.121z"/>
	</g>
</g>
<g>
	<g>
		<circle cx="377.05" cy="244.363" r="8.811"/>
	</g>
</g>
</svg>