<?xml version="1.0" encoding="iso-8859-1"?>
<!-- Uploaded to: SVG Repo, www.svgrepo.com, Generator: SVG Repo Mixer Tools -->
<svg fill="#000000" height="800px" width="800px" version="1.1" id="Layer_1" xmlns="http://www.w3.org/2000/svg" xmlns:xlink="http://www.w3.org/1999/xlink" 
	 viewBox="0 0 512 512" xml:space="preserve">
<g>
	<g>
		<path d="M348.798,146.767c-1.483-1.528-3.443-2.479-5.539-2.717c-0.544-11.497-7.131-21.726-17.493-26.943
			c-24.552-12.363-39.804-37.119-39.804-64.607l0.001-22.182c0-3.346-1.826-6.426-4.761-8.03l-38.71-21.165
			c-2.836-1.551-6.279-1.491-9.058,0.157c-2.78,1.648-4.484,4.641-4.484,7.872v43.347c0,27.489-15.252,52.245-39.804,64.608
			c-10.344,5.209-16.926,15.41-17.491,26.879h-1.885c-2.471,0-4.838,0.999-6.561,2.771c-1.723,1.772-2.656,4.166-2.587,6.636
			l9.265,331.89C170.305,500.264,182.372,512,197.36,512h116.315c14.942,0,27.01-11.7,27.471-26.636l10.23-331.944
			C351.451,150.945,350.521,148.545,348.798,146.767z M247.254,24.586l20.407,11.156l-0.001,13.487h-20.406V24.586z
			 M197.378,133.456c26.209-13.197,43.95-37.668,48.632-65.921h22.891c4.683,28.253,22.424,52.725,48.632,65.921
			c4.128,2.079,6.856,6.023,7.382,10.532h-134.92C190.522,139.479,193.25,135.534,197.378,133.456z M332.317,177.658h-94.213
			c-5.055,0-9.152,4.097-9.152,9.152c0,5.054,4.096,9.152,9.152,9.152h93.65l-8.902,288.837c-0.156,4.99-4.185,8.898-9.177,8.898
			H197.359c-5.007,0-9.036-3.919-9.176-8.924L179.18,162.29h1.572H332.79L332.317,177.658z"/>
	</g>
</g>
<g>
	<g>
		<circle cx="205.057" cy="186.804" r="9.152"/>
	</g>
</g>
</svg>