<?xml version="1.0" encoding="iso-8859-1"?>
<!-- Uploaded to: SVG Repo, www.svgrepo.com, Generator: SVG Repo Mixer Tools -->
<svg fill="#000000" height="800px" width="800px" version="1.1" id="Layer_1" xmlns="http://www.w3.org/2000/svg" xmlns:xlink="http://www.w3.org/1999/xlink" 
	 viewBox="0 0 512 512" xml:space="preserve">
<g>
	<g>
		<path d="M323.02,437.224v-37.231c4.675-0.056,8.449-3.859,8.449-8.546s-3.774-8.49-8.449-8.546V103.31
			c0-1.498-0.415-3.03-1.172-4.321L267.872,6.807C265.377,2.545,260.938,0,256,0c-4.938,0-9.377,2.545-11.873,6.807L190.151,98.99
			c-0.757,1.292-1.172,2.822-1.172,4.321v279.59c-4.675,0.056-8.449,3.859-8.449,8.546s3.774,8.49,8.449,8.546v37.231
			c-4.675,0.056-8.449,3.859-8.449,8.546c0,4.688,3.774,8.49,8.449,8.546v23.191c0,19.019,15.473,34.492,34.492,34.492h65.057
			c19.019,0,34.492-15.473,34.492-34.492v-23.191c4.675-0.056,8.449-3.859,8.449-8.546
			C331.47,441.083,327.695,437.28,323.02,437.224z M256,20.379l43.551,74.379h-87.104L256,20.379z M305.916,477.508
			c0,9.588-7.8,17.389-17.389,17.389H223.47c-9.588,0-17.389-7.8-17.389-17.389v-23.186h99.835V477.508z M305.917,437.22h-99.835
			v-37.221h99.835V437.22z M305.917,382.895h-99.835V111.862h99.835V382.895z"/>
	</g>
</g>
<g>
	<g>
		<path d="M235.332,131.445c-4.723,0-8.552,3.829-8.552,8.552v154.871c0,4.723,3.829,8.552,8.552,8.552
			c4.723,0,8.552-3.829,8.552-8.552V139.997C243.884,135.274,240.055,131.445,235.332,131.445z"/>
	</g>
</g>
<g>
	<g>
		<path d="M275.831,131.445c-4.723,0-8.552,3.829-8.552,8.552v186.158c0,4.723,3.829,8.552,8.552,8.552
			c4.723,0,8.552-3.829,8.552-8.552V139.997C284.383,135.274,280.554,131.445,275.831,131.445z"/>
	</g>
</g>
<g>
	<g>
		<circle cx="235.333" cy="324.113" r="8.552"/>
	</g>
</g>
<g>
	<g>
		<circle cx="275.834" cy="355.481" r="8.552"/>
	</g>
</g>
</svg>