<?xml version="1.0" encoding="iso-8859-1"?>
<!-- Uploaded to: SVG Repo, www.svgrepo.com, Generator: SVG Repo Mixer Tools -->
<svg fill="#000000" height="800px" width="800px" version="1.1" id="Layer_1" xmlns="http://www.w3.org/2000/svg" xmlns:xlink="http://www.w3.org/1999/xlink" 
	 viewBox="0 0 512 512" xml:space="preserve">
<g>
	<g>
		<path d="M463.462,407.684c-1.143-57.674-25.927-109.651-65.046-146.618l28.512-59.827c1.932,0.344,3.862,0.517,5.77,0.517
			c14.801,0,28.304-10.036,32.052-25.03c4.416-17.672-6.37-35.642-24.04-40.058c-17.673-4.417-35.642,6.369-40.059,24.04
			c-2.987,11.954,0.988,24.039,9.339,31.978l-26.478,55.562c-10.547-8.238-21.907-15.479-33.938-21.582l22.222-78.587
			c0.089,0,0.178,0.01,0.268,0.01c7.885,0,15.428-2.786,21.473-7.977c6.694-5.75,10.748-13.761,11.414-22.561
			c0.666-8.799-2.131-17.33-7.88-24.025c-5.75-6.694-13.761-10.748-22.561-11.414c-8.795-0.665-17.33,2.131-24.024,7.88
			c-6.694,5.749-10.748,13.761-11.416,22.561c-0.932,12.287,5.021,23.531,14.589,29.951l-21.569,76.281
			c-18.605-7.358-38.52-12.092-59.286-13.764L268.802,64.14c10.848-3.885,19.371-13.326,21.474-25.468
			c1.505-8.694-0.465-17.455-5.549-24.667c-5.084-7.213-12.671-12.014-21.366-13.519c-17.95-3.101-35.079,8.966-38.187,26.915
			c-2.976,17.191,7.98,33.622,24.678,37.709l3.954,139.255c-13.883,0.145-27.443,1.653-40.552,4.41L189.986,93.898
			c10.027-5.678,16.813-16.439,16.813-28.761c0-18.215-14.82-33.035-33.035-33.035s-33.035,14.82-33.035,33.035
			c0,17.447,13.598,31.768,30.75,32.947l23.384,115.449c-13.184,4.072-25.812,9.421-37.736,15.91l-37.905-79.54
			c8.351-7.939,12.326-20.024,9.339-31.978c-4.416-17.67-22.384-28.452-40.058-24.04c-17.672,4.417-28.456,22.387-24.04,40.058
			c3.747,14.995,17.251,25.03,32.052,25.03c1.907,0,3.837-0.173,5.77-0.517l38.538,80.868
			c-54.554,36.538-90.894,98.239-92.284,168.361c-15.368,0.373-27.756,12.98-27.756,28.436v47.427
			c0,15.69,12.764,28.454,28.454,28.454h413.527c15.69,0,28.454-12.764,28.454-28.454V436.12
			C491.217,420.664,478.829,408.057,463.462,407.684z M419.054,165.306c0.911-3.645,3.187-6.716,6.408-8.65
			c3.221-1.932,7.002-2.496,10.648-1.585c3.645,0.911,6.716,3.187,8.65,6.408c1.934,3.221,2.496,7.003,1.586,10.648
			c-1.88,7.524-9.53,12.119-17.056,10.236C421.765,180.483,417.173,172.831,419.054,165.306z M357.983,113.988
			c0.285-3.746,2.011-7.158,4.86-9.606c2.573-2.211,5.786-3.397,9.142-3.397c0.36,0,0.723,0.014,1.086,0.042
			c3.746,0.285,7.158,2.009,9.606,4.86c2.448,2.85,3.64,6.482,3.355,10.229c-0.285,3.747-2.009,7.158-4.86,9.606
			c-2.85,2.448-6.481,3.641-10.229,3.355C363.211,128.491,357.397,121.721,357.983,113.988z M173.764,79.201
			c-7.756,0-14.066-6.31-14.066-14.066s6.31-14.066,14.066-14.066c7.756,0,14.066,6.31,14.066,14.066S181.52,79.201,173.764,79.201z
			 M99.922,139.579c-3.646,0.911-7.427,0.348-10.648-1.586s-5.497-5.005-6.408-8.65c-0.912-3.645-0.348-7.427,1.585-10.648
			c1.932-3.221,5.005-5.497,8.65-6.408c1.141-0.286,2.284-0.421,3.409-0.421c6.302,0,12.052,4.273,13.648,10.657
			C112.037,130.046,107.445,137.699,99.922,139.579z M243.865,30.635c1.184-6.834,7.14-11.667,13.853-11.667
			c0.793,0,1.598,0.067,2.407,0.207c3.701,0.641,6.933,2.685,9.096,5.757c2.165,3.07,3.003,6.8,2.362,10.503
			c-1.323,7.642-8.609,12.786-16.259,11.46C247.683,45.572,242.541,38.277,243.865,30.635z M472.248,483.545L472.248,483.545
			c0,5.23-4.254,9.485-9.485,9.485H49.236c-5.23,0-9.485-4.254-9.485-9.485v-47.427c0-5.23,4.254-9.485,9.485-9.485h8.733h36.16
			c5.238,0,9.485-4.247,9.485-9.485c0-5.238-4.247-9.485-9.485-9.485H67.501c1.367-62.572,33.374-117.719,81.575-151.026
			l17.325,36.355c1.626,3.412,5.026,5.406,8.569,5.406c1.367,0,2.757-0.297,4.073-0.924c4.728-2.254,6.735-7.914,4.482-12.642
			l-18.221-38.234c10.544-5.81,21.701-10.639,33.348-14.366l2.415,11.924c0.911,4.5,4.866,7.604,9.286,7.604
			c0.623,0,1.258-0.062,1.893-0.191c5.134-1.039,8.453-6.045,7.413-11.178l-2.638-13.023c12.583-2.656,25.62-4.065,38.98-4.065
			c25.065,0,48.997,4.927,70.894,13.845l-13.907,49.183c-1.425,5.041,1.505,10.281,6.546,11.706c0.862,0.244,1.731,0.36,2.585,0.36
			c4.137,0,7.94-2.729,9.122-6.906l13.063-46.2c10.964,5.836,21.285,12.724,30.831,20.527l-29.449,61.795
			c-2.254,4.728-0.247,10.389,4.482,12.642c1.318,0.627,2.706,0.924,4.073,0.924c3.543,0,6.943-1.996,8.569-5.406l26.989-56.632
			c32.906,33.173,53.608,78.469,54.702,128.518h-270.07c-5.238,0-9.485,4.247-9.485,9.485s4.247,9.485,9.485,9.485H454.03h8.733
			c5.23,0,9.485,4.254,9.485,9.485V483.545z"/>
	</g>
</g>
<g>
	<g>
		<circle cx="149.844" cy="330.96" r="9.485"/>
	</g>
</g>
<g>
	<g>
		<circle cx="195.85" cy="330.96" r="9.485"/>
	</g>
</g>
<g>
	<g>
		<circle cx="248.243" cy="330.96" r="9.485"/>
	</g>
</g>
<g>
	<g>
		<circle cx="297.436" cy="330.96" r="9.485"/>
	</g>
</g>
<g>
	<g>
		<circle cx="222.571" cy="288.912" r="9.485"/>
	</g>
</g>
<g>
	<g>
		<circle cx="269.653" cy="288.912" r="9.485"/>
	</g>
</g>
<g>
	<g>
		<circle cx="249.988" cy="247.913" r="9.485"/>
	</g>
</g>
<g>
	<g>
		<circle cx="294.249" cy="254.97" r="9.485"/>
	</g>
</g>
<g>
	<g>
		<circle cx="133.631" cy="418.092" r="9.485"/>
	</g>
</g>
</svg>