<?xml version="1.0" encoding="iso-8859-1"?>
<!-- Uploaded to: SVG Repo, www.svgrepo.com, Generator: SVG Repo Mixer Tools -->
<svg fill="#000000" height="800px" width="800px" version="1.1" id="Layer_1" xmlns="http://www.w3.org/2000/svg" xmlns:xlink="http://www.w3.org/1999/xlink" 
	 viewBox="0 0 512 512" xml:space="preserve">
<g>
	<g>
		<circle cx="226.153" cy="63.131" r="9.365"/>
	</g>
</g>
<g>
	<g>
		<path d="M443.266,285.372c-26.888-36.025-61.736-63.623-101.066-80.109l-8.72-132.767h15.484c5.172,0,9.365-4.193,9.365-9.365
			V46.04c0-25.386-20.654-46.04-46.04-46.04H199.71c-25.386,0-46.04,20.654-46.04,46.04v17.091c0,5.172,4.193,9.365,9.365,9.365
			h17.417l-10.236,132.598c-39.505,16.468-74.498,44.125-101.482,80.278c-2.119,2.84-2.455,6.633-0.867,9.8
			c1.588,3.167,4.828,5.167,8.371,5.167h141.6l24.804,199.862c0.849,6.838,6.466,11.799,13.355,11.799
			c6.889,0,12.506-4.962,13.355-11.799l24.804-199.862H435.76c3.544,0,6.783-2,8.371-5.167S445.385,288.211,443.266,285.372z
			 M256,455.726l-19.285-155.387h38.569L256,455.726z M281.253,281.608h-50.505H95.863c24.209-27.583,53.844-48.591,86.619-61.258
			c3.365-1.301,5.684-4.418,5.961-8.014l11.462-148.486c0.412-5.351-3.967-10.086-9.337-10.086h-18.167V46.04
			c0-15.058,12.251-27.309,27.309-27.309h112.579c15.058,0,27.309,12.251,27.309,27.309v7.726h-75.061
			c-5.172,0-9.365,4.193-9.365,9.365s4.193,9.365,9.365,9.365h50.17l9.187,139.862c0.239,3.632,2.561,6.798,5.955,8.117
			c32.639,12.678,62.159,33.643,86.289,61.134H281.253z"/>
	</g>
</g>
</svg>