<?xml version="1.0" encoding="iso-8859-1"?>
<!-- Uploaded to: SVG Repo, www.svgrepo.com, Generator: SVG Repo Mixer Tools -->
<svg fill="#000000" height="800px" width="800px" version="1.1" id="Layer_1" xmlns="http://www.w3.org/2000/svg" xmlns:xlink="http://www.w3.org/1999/xlink" 
	 viewBox="0 0 511.999 511.999" xml:space="preserve">
<g>
	<g>
		<circle cx="271.509" cy="43.424" r="9.054"/>
	</g>
</g>
<g>
	<g>
		<circle cx="319.904" cy="43.424" r="9.054"/>
	</g>
</g>
<g>
	<g>
		<circle cx="314.049" cy="112.228" r="9.054"/>
	</g>
</g>
<g>
	<g>
		<circle cx="360.379" cy="112.228" r="9.054"/>
	</g>
</g>
<g>
	<g>
		<circle cx="336.007" cy="179.031" r="9.054"/>
	</g>
</g>
<g>
	<g>
		<circle cx="382.337" cy="179.031" r="9.054"/>
	</g>
</g>
<g>
	<g>
		<circle cx="339.991" cy="246.945" r="9.054"/>
	</g>
</g>
<g>
	<g>
		<circle cx="386.333" cy="246.945" r="9.054"/>
	</g>
</g>
<g>
	<g>
		<circle cx="330.937" cy="316.959" r="9.054"/>
	</g>
</g>
<g>
	<g>
		<circle cx="377.279" cy="316.959" r="9.054"/>
	</g>
</g>
<g>
	<g>
		<circle cx="415.908" cy="357.7" r="9.054"/>
	</g>
</g>
<g>
	<g>
		<circle cx="314.254" cy="389.001" r="9.054"/>
	</g>
</g>
<g>
	<g>
		<circle cx="301.809" cy="436.586" r="9.054"/>
	</g>
</g>
<g>
	<g>
		<circle cx="268.781" cy="468.962" r="9.054"/>
	</g>
</g>
<g>
	<g>
		<circle cx="317.9" cy="75.816" r="9.054"/>
	</g>
</g>
<g>
	<g>
		<circle cx="354.114" cy="148.84" r="9.054"/>
	</g>
</g>
<g>
	<g>
		<circle cx="363.168" cy="215.221" r="9.054"/>
	</g>
</g>
<g>
	<g>
		<circle cx="358.098" cy="289.267" r="9.054"/>
	</g>
</g>
<g>
	<g>
		<circle cx="345.06" cy="355.08" r="9.054"/>
	</g>
</g>
<g>
	<g>
		<path d="M163.794,126.037c-38.562,0-68.768,57.087-68.768,129.962s30.206,129.962,68.768,129.962s68.768-57.086,68.768-129.962
			S202.356,126.037,163.794,126.037z M163.795,367.855c-12.144,0-24.576-11.069-34.108-30.369
			c-10.675-21.614-16.553-50.553-16.553-81.486c0-30.933,5.879-59.872,16.553-81.486c9.532-19.3,21.964-30.369,34.108-30.369
			c12.144,0,24.575,11.068,34.108,30.369c10.675,21.614,16.554,50.553,16.554,81.486c0,30.933-5.879,59.872-16.554,81.486
			C188.371,356.786,175.939,367.855,163.795,367.855z"/>
	</g>
</g>
<g>
	<g>
		<path d="M489.622,387.47c-2.955-4.285-7.827-6.843-13.032-6.843H356.813c-3.839,0-7.26,2.42-8.537,6.039
			c-11.589,32.82-27.459,60.088-45.895,78.856c-18.231,18.56-38.713,28.369-59.233,28.369h-25.433
			c18.508-13.05,35.368-32.925,49.601-58.928c26.247-47.952,40.702-111.51,40.702-178.965s-14.456-131.012-40.702-178.965
			c-14.233-26.003-31.093-45.877-49.601-58.928h75.044c32.646,0,63.77,24.016,87.638,67.623
			c24.814,45.332,38.479,105.802,38.479,170.271c0,21.92-1.604,43.643-4.768,64.564c-0.747,4.944,2.654,9.558,7.599,10.305
			c0.459,0.07,0.914,0.103,1.365,0.103c4.401,0,8.262-3.216,8.94-7.7c3.298-21.814,4.971-44.448,4.971-67.273
			c0-67.455-14.456-131.012-40.702-178.965C369.09,27.359,332.325,0,292.759,0H157.59c-1.049,0-2.052,0.187-2.99,0.515
			C118.56,4.419,85.346,31.23,60.274,77.035c-26.247,47.952-40.702,111.51-40.702,178.965s14.456,131.012,40.702,178.965
			c25.072,45.805,58.286,72.616,94.326,76.519c0.937,0.328,1.94,0.515,2.99,0.515h85.557h49.612h82.455
			c23.868,0,47.351-10.725,67.912-31.017c19.146-18.897,35.836-46.163,48.263-78.853
			C493.244,397.247,492.585,391.768,489.622,387.47z M76.158,426.27c-24.814-45.332-38.479-105.802-38.479-170.271
			S51.344,131.06,76.158,85.729c23.868-43.606,54.992-67.622,87.636-67.622c32.646,0,63.77,24.016,87.638,67.623
			c24.814,45.332,38.479,105.802,38.479,170.271s-13.665,124.939-38.479,170.271c-23.868,43.607-54.992,67.623-87.638,67.623
			C131.15,493.893,100.026,469.877,76.158,426.27z M375.214,493.893h-78.241c26.692-18.787,49.807-51.532,66.179-95.158h110.137
			C449.858,458.388,413.344,493.893,375.214,493.893z"/>
	</g>
</g>
<g>
	<g>
		<circle cx="386.333" cy="423.103" r="9.054"/>
	</g>
</g>
<g>
	<g>
		<circle cx="432.554" cy="424.72" r="9.054"/>
	</g>
</g>
<g>
	<g>
		<circle cx="395.386" cy="459.908" r="9.054"/>
	</g>
</g>
<g>
	<g>
		<circle cx="351.748" cy="472.668" r="9.054"/>
	</g>
</g>
</svg>