<?xml version="1.0" encoding="iso-8859-1"?>
<!-- Uploaded to: SVG Repo, www.svgrepo.com, Generator: SVG Repo Mixer Tools -->
<svg fill="#000000" height="800px" width="800px" version="1.1" id="Layer_1" xmlns="http://www.w3.org/2000/svg" xmlns:xlink="http://www.w3.org/1999/xlink" 
	 viewBox="0 0 512 512" xml:space="preserve">
<g>
	<g>
		<path d="M309.125,0H202.878c-13.193,0-23.927,10.733-23.927,23.927v357.768c0,4.676,3.791,8.468,8.467,8.468
			c4.676,0,8.468-3.791,8.468-8.468V23.927c0-3.856,3.136-6.992,6.992-6.992h106.248c3.856,0,6.992,3.136,6.992,6.992v20.104
			h-64.468c-4.676,0-8.467,3.791-8.467,8.467c0,4.676,3.791,8.467,8.467,8.467h64.468v17.241h-17.239
			c-4.676,0-8.467,3.791-8.467,8.467c0,4.676,3.791,8.467,8.467,8.467h17.239v17.241h-17.239c-4.676,0-8.467,3.791-8.467,8.467
			c0,4.676,3.791,8.467,8.467,8.467h17.239v17.241h-17.239c-4.676,0-8.467,3.791-8.467,8.468c0,4.676,3.791,8.467,8.467,8.467
			h17.239v17.241h-64.468c-4.676,0-8.467,3.791-8.467,8.467c0,4.676,3.791,8.467,8.467,8.467h64.468v17.241h-17.239
			c-4.676,0-8.467,3.791-8.467,8.467s3.791,8.467,8.467,8.467h17.239v17.241h-17.239c-4.676,0-8.467,3.791-8.467,8.467
			c0,4.676,3.791,8.467,8.467,8.467h17.239v17.241h-17.239c-4.676,0-8.467,3.791-8.467,8.467c0,4.676,3.791,8.468,8.467,8.468
			h17.239v17.241h-64.468c-4.676,0-8.467,3.791-8.467,8.467c0,4.676,3.791,8.467,8.467,8.467h64.468v17.241h-17.239
			c-4.676,0-8.467,3.791-8.467,8.467c0,4.676,3.791,8.467,8.467,8.467h17.239v17.241h-17.239c-4.676,0-8.467,3.791-8.467,8.467
			c0,4.676,3.791,8.467,8.467,8.467h17.239v17.241h-17.239c-4.676,0-8.467,3.791-8.467,8.467c0,4.676,3.791,8.467,8.467,8.467
			h17.239v17.241h-64.468c-4.676,0-8.467,3.791-8.467,8.468c0,4.676,3.791,8.467,8.467,8.467h64.468v16.999
			c0,3.856-3.136,6.992-6.992,6.992H202.878c-3.855,0-6.992-3.136-6.992-6.992v-36.759c0-4.676-3.791-8.468-8.468-8.468
			c-4.676,0-8.467,3.791-8.467,8.468v36.757c0,13.193,10.733,23.927,23.927,23.927h106.248c13.193,0,23.927-10.733,23.927-23.927
			V23.927C333.052,10.733,322.319,0,309.125,0z"/>
	</g>
</g>
<g>
	<g>
		<circle cx="269.9" cy="86.673" r="8.467"/>
	</g>
</g>
<g>
	<g>
		<circle cx="269.9" cy="120.848" r="8.467"/>
	</g>
</g>
<g>
	<g>
		<circle cx="269.9" cy="155.023" r="8.467"/>
	</g>
</g>
<g>
	<g>
		<circle cx="269.9" cy="223.372" r="8.467"/>
	</g>
</g>
<g>
	<g>
		<circle cx="269.9" cy="257.547" r="8.467"/>
	</g>
</g>
<g>
	<g>
		<circle cx="269.9" cy="291.733" r="8.467"/>
	</g>
</g>
<g>
	<g>
		<circle cx="269.9" cy="360.082" r="8.467"/>
	</g>
</g>
<g>
	<g>
		<circle cx="269.9" cy="394.257" r="8.467"/>
	</g>
</g>
<g>
	<g>
		<circle cx="269.9" cy="428.432" r="8.467"/>
	</g>
</g>
<g>
	<g>
		<circle cx="187.415" cy="417.435" r="8.467"/>
	</g>
</g>
</svg>