<?xml version="1.0" encoding="iso-8859-1"?>
<!-- Uploaded to: SVG Repo, www.svgrepo.com, Generator: SVG Repo Mixer Tools -->
<svg fill="#000000" height="800px" width="800px" version="1.1" id="Layer_1" xmlns="http://www.w3.org/2000/svg" xmlns:xlink="http://www.w3.org/1999/xlink" 
	 viewBox="0 0 512 512" xml:space="preserve">
<g>
	<g>
		<circle cx="290.622" cy="469.036" r="8.651"/>
	</g>
</g>
<g>
	<g>
		<path d="M364.242,151.309c0-0.001,0-0.002,0-0.002V82.973C364.242,37.222,327.021,0,281.27,0
			c-45.752,0-82.975,37.222-82.975,82.973v92.388c0,2.869,1.421,5.552,3.797,7.161c1.453,0.985,3.148,1.49,4.855,1.49
			c1.082,0,2.169-0.203,3.202-0.615l60.215-24.002c3.29-1.312,5.448-4.494,5.448-8.036v-35.882c0-3.079-1.637-5.927-4.298-7.476
			c-5.969-3.477-9.678-9.914-9.678-16.802c0-10.715,8.717-19.432,19.432-19.432s19.432,8.717,19.432,19.432
			c0,6.888-3.708,13.326-9.678,16.802c-2.661,1.55-4.298,4.397-4.298,7.476v35.882c0,4.778,3.872,8.651,8.651,8.651h50.688
			L319.31,437.128c-7.611-6.845-17.669-11.019-28.686-11.019c-13.935,0-26.337,6.676-34.187,16.993l-91.859-263.284
			c-1.573-4.511-6.508-6.892-11.018-5.319c-4.511,1.575-6.893,6.507-5.318,11.018l99.477,285.117
			c0.835,22.95,19.756,41.366,42.907,41.366c23.493,0,42.631-18.965,42.932-42.388l30.64-317.348
			c0.001-0.014,0.002-0.028,0.005-0.042l0.002-0.03c0.01-0.103,0.008-0.204,0.014-0.307c0.01-0.174,0.027-0.347,0.027-0.524v-0.053
			H364.242z M290.622,494.698c-14.141,0-25.643-11.504-25.643-25.643s11.504-25.643,25.643-25.643s25.643,11.504,25.643,25.643
			S304.763,494.698,290.622,494.698z M346.941,142.71H304.03v-22.686c8.725-6.911,13.975-17.546,13.975-28.823
			c0-20.255-16.48-36.734-36.734-36.734c-20.255,0-36.734,16.479-36.734,36.734c0,11.277,5.25,21.912,13.975,28.823v25.473
			l-42.912,17.105V82.973c0-36.212,29.46-65.671,65.672-65.671s65.671,29.46,65.671,65.671V142.71z"/>
	</g>
</g>
</svg>