<?xml version="1.0" encoding="iso-8859-1"?>
<!-- Uploaded to: SVG Repo, www.svgrepo.com, Generator: SVG Repo Mixer Tools -->
<svg fill="#000000" height="800px" width="800px" version="1.1" id="Layer_1" xmlns="http://www.w3.org/2000/svg" xmlns:xlink="http://www.w3.org/1999/xlink" 
	 viewBox="0 0 512.001 512.001" xml:space="preserve">
<g>
	<g>
		<path d="M333.344,380.297c-25.226,0-45.749,20.523-45.749,45.749s20.523,45.749,45.749,45.749s45.749-20.523,45.749-45.749
			S358.571,380.297,333.344,380.297z M333.344,454.529c-15.705,0-28.482-12.777-28.482-28.482s12.777-28.482,28.482-28.482
			c15.705,0,28.482,12.777,28.482,28.482S349.05,454.529,333.344,454.529z"/>
	</g>
</g>
<g>
	<g>
		<path d="M410.663,417.413c-4.768,0-8.634,3.866-8.634,8.634c0,18.515-7.258,35.877-20.435,48.885
			c-13.175,13.005-30.586,20.03-49.164,19.795c-37.369-0.485-67.771-31.811-67.771-69.833V292.646l39.139-6.318v45.885
			c0,6.96,2.771,13.44,7.801,18.246c5.039,4.814,11.658,7.29,18.618,6.973c17.593-0.807,34.806,5.193,48.053,16.656
			c3.605,3.121,9.06,2.727,12.178-0.878c3.121-3.605,2.727-9.058-0.878-12.178c-16.579-14.349-38.095-21.848-60.136-20.85
			c-2.217,0.094-4.309-0.683-5.905-2.208c-1.587-1.517-2.462-3.563-2.462-5.76v-45.885c0-5.096-2.227-9.911-6.11-13.213
			c-1.604-1.363-3.424-2.386-5.354-3.083l-16.595-96.794V27.157C293.006,12.183,280.823,0,265.849,0h-9.824h-9.872
			c-14.974,0-27.157,12.183-27.157,27.157v145.664l-16.716,97.254c-1.886,0.696-3.663,1.706-5.233,3.041
			c-3.883,3.3-6.11,8.117-6.11,13.213v45.885c0,2.198-0.875,4.244-2.462,5.76c-1.597,1.525-3.689,2.306-5.908,2.208
			c-1.297-0.059-2.613-0.089-3.909-0.089c-47.394,0-85.953,38.558-85.953,85.953c0,23.169,9.081,44.895,25.573,61.174
			c16.215,16.007,37.614,24.78,60.369,24.78c0.383,0,0.767-0.002,1.15-0.007c33.432-0.434,62.398-20.53,76.205-49.275
			c13.806,28.746,42.772,48.841,76.205,49.275c0.385,0.005,0.766,0.007,1.15,0.007c22.754-0.001,44.155-8.775,60.369-24.78
			c16.491-16.279,25.573-38.003,25.573-61.174C419.297,421.279,415.431,417.413,410.663,417.413z M275.738,27.157v45.368
			l-9.471-55.236C271.526,17.511,275.738,21.846,275.738,27.157z M223.647,247.694c0.45,0.235,0.92,0.44,1.417,0.594
			c7.623,2.373,14.475,6.725,20.014,12.403c-2.47,4.094-4.523,8.473-6.085,13.083l-15.721-2.567l-3.565-0.582L223.647,247.694z
			 M247.344,424.894h-0.001c0,38.02-30.402,69.348-67.771,69.833c-18.541,0.239-35.989-6.79-49.164-19.795
			c-13.178-13.008-20.435-30.37-20.435-48.885c0-37.873,30.812-68.686,68.686-68.686c1.036,0,2.088,0.024,3.124,0.071
			c6.971,0.319,13.582-2.158,18.62-6.973c5.031-4.806,7.801-11.286,7.801-18.246l0.085-45.956l27.205,4.441l8.39,1.37l3.459,0.565
			V424.894z M236.263,234.026V27.157c0-5.453,4.437-9.89,9.89-9.89h2.592l43.441,253.375l-14.365,2.345l-4.813,0.786
			C266.94,255.855,253.57,241.36,236.263,234.026z"/>
	</g>
</g>
<g>
	<g>
		<path d="M178.658,380.297c-25.226,0-45.749,20.523-45.749,45.749s20.523,45.749,45.749,45.749s45.749-20.523,45.749-45.749
			S203.884,380.297,178.658,380.297z M178.658,454.529c-15.705,0-28.482-12.777-28.482-28.482s12.777-28.482,28.482-28.482
			s28.482,12.777,28.482,28.482S194.363,454.529,178.658,454.529z"/>
	</g>
</g>
<g>
	<g>
		<circle cx="260.772" cy="217.845" r="8.634"/>
	</g>
</g>
<g>
	<g>
		<circle cx="403.044" cy="393.546" r="8.634"/>
	</g>
</g>
</svg>