<?xml version="1.0" encoding="iso-8859-1"?>
<!-- Uploaded to: SVG Repo, www.svgrepo.com, Generator: SVG Repo Mixer Tools -->
<svg fill="#000000" height="800px" width="800px" version="1.1" id="Layer_1" xmlns="http://www.w3.org/2000/svg" xmlns:xlink="http://www.w3.org/1999/xlink" 
	 viewBox="0 0 512 512" xml:space="preserve">
<g>
	<g>
		<path d="M499.555,32.684c-7.674-3.497-16.398-2.234-22.769,3.299L7.344,443.952c-6.765,5.879-9.109,15.102-5.97,23.497
			c3.139,8.395,10.957,13.819,19.919,13.819h469.443c11.725,0,21.264-9.539,21.264-21.266V52.035
			C512,43.598,507.231,36.183,499.555,32.684z M494.973,132.11h-0.001h-35.648c-4.703,0-8.514,3.812-8.514,8.514
			s3.811,8.514,8.514,8.514h35.648v120.425h-35.648c-4.703,0-8.514,3.812-8.514,8.514s3.811,8.514,8.514,8.514h35.648v117.273
			H464.64c-4.703,0-8.514,3.812-8.514,8.514s3.811,8.514,8.514,8.514h30.332v39.111c0,2.337-1.901,4.238-4.237,4.238H454.6v-28.118
			c0-4.702-3.811-8.514-8.514-8.514s-8.514,3.812-8.514,8.514v28.118H317.148v-35.648c0-4.702-3.811-8.514-8.514-8.514
			c-4.703,0-8.514,3.812-8.514,8.514v35.648H179.695v-35.648c0-4.702-3.811-8.514-8.514-8.514c-4.703,0-8.514,3.812-8.514,8.514
			v35.648H21.293c-2.653,0-3.66-1.925-3.969-2.754c-0.309-0.829-0.814-2.941,1.19-4.683L487.957,48.836
			c0.938-0.815,1.896-1.061,2.711-1.061c0.797,0,1.456,0.236,1.825,0.403c0.746,0.339,2.48,1.396,2.48,3.856V132.11z"/>
	</g>
</g>
<g>
	<g>
		<path d="M396.833,213.479c-4.685-2.136-10.007-1.365-13.895,2.012l-95.38,82.891c-3.549,3.084-3.925,8.462-0.841,12.011
			c3.085,3.55,8.463,3.926,12.011,0.841l88.669-77.059v129.814H238.021l12.383-10.76c3.549-3.084,3.925-8.462,0.841-12.011
			c-3.085-3.55-8.462-3.927-12.011-0.842l-20.564,17.871c-4.128,3.588-5.558,9.216-3.642,14.337
			c1.915,5.122,6.686,8.432,12.155,8.432h164.267c7.155,0,12.975-5.821,12.975-12.976V225.286
			C404.425,220.139,401.515,215.614,396.833,213.479z"/>
	</g>
</g>
<g>
	<g>
		<circle cx="68.091" cy="446.948" r="8.514"/>
	</g>
</g>
<g>
	<g>
		<circle cx="102.451" cy="446.948" r="8.514"/>
	</g>
</g>
<g>
	<g>
		<circle cx="136.813" cy="446.948" r="8.514"/>
	</g>
</g>
<g>
	<g>
		<circle cx="205.538" cy="446.948" r="8.514"/>
	</g>
</g>
<g>
	<g>
		<circle cx="239.912" cy="446.948" r="8.514"/>
	</g>
</g>
<g>
	<g>
		<circle cx="274.274" cy="446.948" r="8.514"/>
	</g>
</g>
<g>
	<g>
		<circle cx="342.998" cy="446.948" r="8.514"/>
	</g>
</g>
<g>
	<g>
		<circle cx="377.361" cy="446.948" r="8.514"/>
	</g>
</g>
<g>
	<g>
		<circle cx="411.723" cy="446.948" r="8.514"/>
	</g>
</g>
<g>
	<g>
		<circle cx="477.678" cy="381.163" r="8.514"/>
	</g>
</g>
<g>
	<g>
		<circle cx="477.678" cy="346.801" r="8.514"/>
	</g>
</g>
<g>
	<g>
		<circle cx="477.678" cy="312.439" r="8.514"/>
	</g>
</g>
<g>
	<g>
		<circle cx="477.678" cy="243.714" r="8.514"/>
	</g>
</g>
<g>
	<g>
		<circle cx="477.678" cy="209.352" r="8.514"/>
	</g>
</g>
<g>
	<g>
		<circle cx="477.678" cy="174.99" r="8.514"/>
	</g>
</g>
<g>
	<g>
		<circle cx="477.678" cy="106.265" r="8.514"/>
	</g>
</g>
<g>
	<g>
		<circle cx="477.678" cy="71.903" r="8.514"/>
	</g>
</g>
<g>
	<g>
		<circle cx="268.87" cy="326.311" r="8.514"/>
	</g>
</g>
</svg>