<?xml version="1.0" encoding="iso-8859-1"?>
<!-- Uploaded to: SVG Repo, www.svgrepo.com, Generator: SVG Repo Mixer Tools -->
<svg fill="#000000" height="800px" width="800px" version="1.1" id="Layer_1" xmlns="http://www.w3.org/2000/svg" xmlns:xlink="http://www.w3.org/1999/xlink" 
	 viewBox="0 0 512 512" xml:space="preserve">
<g>
	<g>
		<path d="M403.93,455.243h-2.43V56.757h2.43c15.648,0,28.378-12.731,28.378-28.378C432.307,12.732,419.578,0,403.93,0H108.071
			C92.423,0,79.693,12.73,79.693,28.378c0,15.647,12.73,28.379,28.379,28.379h2.43v398.488h-2.43
			c-15.648,0-28.378,12.731-28.378,28.378c0,15.647,12.73,28.378,28.378,28.378H403.93c15.648,0,28.378-12.73,28.378-28.378
			C432.307,467.975,419.578,455.243,403.93,455.243z M108.071,39.469c-6.117,0.001-11.093-4.975-11.093-11.092
			s4.976-11.092,11.092-11.092h295.858c6.117,0,11.092,4.976,11.092,11.092s-4.976,11.092-11.092,11.092h-11.073H119.145H108.071z
			 M223.2,438.431c0.967,3.946,4.499,6.588,8.387,6.588c0.681,0,1.372-0.082,2.064-0.251l150.562-36.902v17.459l-124.472,29.92
			H127.788v-19.404l256.426-62.848v17.077l-154.676,37.91C224.901,429.116,222.064,433.795,223.2,438.431z M384.214,443.103v12.14
			h-50.508L384.214,443.103z M127.788,418.044v-17.076l256.426-62.848v17.076L127.788,418.044z M173.087,346.092
			c0.967,3.946,4.499,6.588,8.387,6.588c0.681,0,1.372-0.082,2.064-0.251l200.674-49.184v17.077l-256.425,62.848v-51.95
			l256.426-62.848v17.076l-204.789,50.192C174.788,336.778,171.951,341.456,173.087,346.092z M127.788,313.423v-17.076
			l256.426-62.848v17.076L127.788,313.423z M127.788,278.551v-17.077l256.426-62.848v17.077L127.788,278.551z M127.788,243.676
			V226.6l180.115-44.146c4.636-1.136,7.473-5.815,6.337-10.451c-1.136-4.636-5.816-7.474-10.451-6.337l-176.001,43.138v-17.077
			l256.426-62.848v51.95h0L127.788,243.676z M127.788,173.928v-17.076l256.426-62.848v17.076L127.788,173.928z M127.788,139.055
			v-17.076l119.958-29.401c4.636-1.136,7.473-5.815,6.337-10.451c-1.136-4.636-5.815-7.476-10.451-6.337l-115.844,28.393V88.436
			l129.255-31.679h127.17v19.45h0.001L127.788,139.055z M127.788,70.639V56.757h56.642L127.788,70.639z M403.93,494.714H108.071
			c-6.117,0-11.092-4.976-11.092-11.092c0-6.116,4.976-11.092,11.092-11.092h11.073h140.824c0.198,0.014,0.392,0.05,0.591,0.05
			c0.281,0,0.566-0.022,0.85-0.05h131.447h11.073c6.117,0,11.092,4.976,11.092,11.092
			C415.022,489.738,410.047,494.714,403.93,494.714z"/>
	</g>
</g>
<g>
	<g>
		<circle cx="337.271" cy="165.921" r="8.643"/>
	</g>
</g>
<g>
	<g>
		<circle cx="364.836" cy="159.606" r="8.643"/>
	</g>
</g>
<g>
	<g>
		<circle cx="149.235" cy="351.641" r="8.643"/>
	</g>
</g>
</svg>