<?xml version="1.0" encoding="iso-8859-1"?>
<!-- Uploaded to: SVG Repo, www.svgrepo.com, Generator: SVG Repo Mixer Tools -->
<svg fill="#000000" height="800px" width="800px" version="1.1" id="Layer_1" xmlns="http://www.w3.org/2000/svg" xmlns:xlink="http://www.w3.org/1999/xlink" 
	 viewBox="0 0 512 512" xml:space="preserve">
<g>
	<g>
		<path d="M503.108,220.184c5.675-11.276,8.892-23.994,8.892-37.455c0-46.107-37.51-83.617-83.617-83.617
			c-29.586,0-56.54,15.37-71.64,40.472H151.26c-15.631-21.433-40.889-34.471-67.644-34.471C37.51,105.113,0,142.622,0,188.729
			c0,13.462,3.217,26.18,8.892,37.456C3.066,237.777,0,250.653,0,263.723c0,46.107,37.51,83.617,83.617,83.617
			c29.607,0,56.578-15.392,71.671-40.526h120.066c4.762,0,8.623-3.861,8.623-8.623c0-4.762-3.861-8.623-8.623-8.623H158.859v-132.74
			H353.14v131.057c-0.212,0.544-0.368,1.106-0.467,1.683H338.97c-4.762,0-8.623,3.861-8.623,8.623s3.861,8.623,8.623,8.623h21.257
			c0.152,0.016,0.307,0.021,0.461,0.03c15.569,21.56,40.438,34.496,67.696,34.496c20.521,0,39.328-7.444,53.895-19.756
			c4.213,17.945-4.024,34.874-7.112,40.349c-9.931,17.607-36.487,35.628-71.311,33.569c-12.615-0.744-20.016-4.352-28.586-8.528
			c-8.791-4.284-18.753-9.139-34.746-10.975c-23.6-2.709-48.105,2.504-72.828,15.497c-4.216,2.215-5.837,7.429-3.622,11.644
			c2.217,4.216,7.428,5.838,11.644,3.622c21.598-11.352,42.742-15.936,62.837-13.629c13.059,1.499,20.879,5.31,29.158,9.345
			c9.376,4.57,19.071,9.294,35.127,10.242c1.922,0.114,3.873,0.17,5.853,0.17c29.527-0.001,64.721-12.747,81.493-42.481
			c4.551-8.067,17.655-35.35,5.454-63.068C505.911,293.45,512,276.286,512,257.724C512,244.652,508.934,231.775,503.108,220.184z
			 M83.617,122.358c17.815,0,34.791,7.288,47.129,19.681c-7.258,1.797-14.141,4.542-20.518,8.101
			c-7.781-5.376-17.022-8.281-26.611-8.281c-25.845,0-46.872,21.027-46.872,46.871c0,19.924,12.72,37.533,31.042,44.119
			c0.865,7.489,2.724,14.676,5.44,21.434c-31.678-5.002-55.981-32.489-55.981-65.553C17.246,152.131,47.019,122.358,83.617,122.358z
			 M94.711,161.267c-14.677,13.311-24.604,31.758-26.948,52.47c-8.346-5.321-13.773-14.666-13.773-25.008
			c0-16.335,13.291-29.626,29.627-29.626C87.466,159.104,91.221,159.857,94.711,161.267z M83.234,272.336
			c4.542,6.233,9.925,11.809,15.98,16.574c-4.631,2.871-10.008,4.439-15.597,4.439c-15.236,0-27.817-11.561-29.444-26.371
			C63.223,270.395,73.013,272.29,83.234,272.336z M83.617,330.093c-36.597,0-66.371-29.774-66.371-66.37
			c0-6.93,1.091-13.789,3.186-20.321c4.871,5.622,10.463,10.601,16.655,14.764c-0.218,1.841-0.34,3.695-0.34,5.557
			c0,25.844,21.027,46.871,46.872,46.871c11.634,0,22.686-4.291,31.224-11.932c6.421,3.074,13.297,5.337,20.492,6.691
			C122.881,320.863,104.039,330.093,83.617,330.093z M141.614,251.927c-5.863-1.867-11.007-5.474-14.807-10.475
			c-4.876-6.417-6.96-14.348-5.87-22.333c0.644-4.718-2.659-9.065-7.378-9.709c-4.711-0.643-9.065,2.659-9.709,7.378
			c-1.713,12.549,1.564,25.014,9.225,35.098c7.087,9.326,17.142,15.576,28.539,17.819v19.211
			c-19.46-2.717-36.234-13.896-46.486-29.696c-0.079-0.133-0.164-0.262-0.251-0.391c-6.584-10.302-10.419-22.524-10.419-35.632
			c0-33.469,24.906-61.215,57.155-65.716V251.927z M428.383,116.357c36.597,0,66.371,29.774,66.371,66.371
			c0,32.254-23.13,59.194-53.67,65.139c2.082-6.745,3.319-13.854,3.616-21.202c18.055-6.723,30.555-24.201,30.555-43.937
			c0-25.844-21.027-46.871-46.872-46.871c-11.646,0-22.692,4.287-31.226,11.929c-6.42-3.074-13.295-5.336-20.489-6.69
			C389.12,125.587,407.96,116.357,428.383,116.357z M457.827,260.978c-1.627,14.809-14.208,26.371-29.444,26.371
			c-3.849,0-7.604-0.753-11.095-2.164c6.074-5.509,11.33-11.899,15.58-18.963C441.61,265.757,449.994,263.935,457.827,260.978z
			 M412.784,157.538c4.629-2.871,10.006-4.436,15.6-4.436c16.336,0,29.627,13.291,29.627,29.625
			c-0.001,10.674-5.789,20.292-14.6,25.513C439.686,187.787,428.504,169.913,412.784,157.538z M370.387,194.533
			c12.121,3.929,20.954,15.376,20.954,28.718c0,13.342-8.833,24.79-20.954,28.718V194.533z M370.387,269.745
			c21.704-4.333,38.2-23.641,38.2-46.495s-16.496-42.161-38.2-46.495v-19.222c32.249,4.502,57.155,32.248,57.155,65.717
			s-24.907,61.216-57.155,65.717V269.745z M428.383,324.093c-18.151,0-34.97-7.227-47.217-19.66
			c7.29-1.796,14.205-4.549,20.606-8.12c7.781,5.376,17.022,8.281,26.611,8.281c25.845,0,46.872-21.027,46.872-46.871
			c0-1.862-0.122-3.717-0.34-5.557c6.191-4.162,11.783-9.142,16.655-14.764c2.095,6.531,3.186,13.389,3.186,20.321
			C494.755,294.319,464.981,324.093,428.383,324.093z"/>
	</g>
</g>
<g>
	<g>
		<circle cx="123.501" cy="192.965" r="8.623"/>
	</g>
</g>
<g>
	<g>
		<circle cx="307.557" cy="298.392" r="8.623"/>
	</g>
</g>
</svg>